<?xml version="1.0" encoding="UTF-8" standalone="no"?>
<!-- Created with Inkscape (http://www.inkscape.org/) -->

<svg
   width="22.800829mm"
   height="22.978539mm"
   viewBox="0 0 22.800829 22.978539"
   version="1.1"
   id="svg1"
   xmlns="http://www.w3.org/2000/svg"
>
  <defs
     id="defs1">
    <clipPath
       id="a-7-6-5">
      <path
         fill="#ffffff"
         d="M 0,0 H 692 V 486 H 0 Z"
         id="path424-4-1-9" />
    </clipPath>
    <clipPath
       id="a-3-9-1-9-2">
      <path
         fill="#ffffff"
         d="M 0,0 H 692 V 486 H 0 Z"
         id="path424-3-7-5-9-27" />
    </clipPath>
  </defs>
  <g
     id="layer1"
     transform="translate(-112.40351,-121.56133)">
    <g
       transform="matrix(0.26114195,0,0,0.26114195,48.074541,103.72401)"
       table_id="11"
       id="g922">
      <g
         clip-path="url(#a-3-9-1-9-2)"
         transform="matrix(1.2922237,0,0,1.2922237,175.76963,21.534845)"
         id="g396-8-1-5-0-0">
        <g
           id="g424-2-9-7-5-0"
           style="fill:#333333">
          <path
             d="m 103.2201,57.750697 -28.049997,-0.28 -0.04,3.38 28.059997,0.28 z"
             fill="#2a5caa"
             stroke="#ffffff"
             stroke-width="0.09"
             stroke-miterlimit="10"
             stroke-linecap="round"
             stroke-linejoin="round"
             id="path320-6-0-5-6-4"
             style="fill:#808080" />
          <path
             d="m 101.0501,67.550697 -1.299997,-12.93 a 4.6,4.6 0 0 0 -4.57,-4.64 l -11.79,-0.12 a 4.6,4.6 0 0 0 -4.65,4.55 l -1.56,12.9 0.01,0.42 -0.02,0.2 c 0,0.9 0.43,1.73 1.19,2.49 0.37,0.4 0.8,0.74 1.29,1 2.17,1.35 5.56,2.25 9.4,2.29 3.84,0.04 7.24,-0.79 9.44,-2.1 0.5,-0.24 0.94,-0.58 1.32,-0.97 a 3.5,3.5 0 0 0 1.229997,-2.46 l -0.02,-0.2 z"
             fill="#2a5caa"
             stroke="#ffffff"
             stroke-width="0.09"
             stroke-miterlimit="10"
             stroke-linecap="round"
             stroke-linejoin="round"
             id="path321-9-5-3-0-4"
             style="fill:#333333" />
          <path
             d="m 99.880103,66.690697 -1.17,-11.66 a 4.15,4.15 0 0 0 -4.11,-4.19 l -10.64,-0.1 a 4.15,4.15 0 0 0 -4.2,4.1 l -1.4,11.63 0.01,0.39 -0.02,0.18 c -0.01,0.8 0.38,1.56 1.07,2.24 a 4.17,4.17 0 0 0 1.16,0.9 c 1.96,1.22 5.02,2.03 8.48,2.06 3.46,0.04 6.54,-0.7 8.52,-1.88 0.44,-0.23 0.84,-0.53 1.18,-0.89 0.7,-0.66 1.1,-1.41 1.12,-2.21 l -0.02,-0.19 z m 1.439997,-26.18 -1.499997,7.2 c -0.02,1.67 -2.1,3.01 -4.64,2.99 l -11.8,-0.12 c -2.54,-0.03 -4.58,-1.4 -4.57,-3.08 l -1.36,-7.24 0.02,-0.28 c 0,-0.04 -0.02,-0.09 -0.01,-0.13 0,-0.59 0.45,-1.13 1.23,-1.62 0.37,-0.26 0.8,-0.48 1.3,-0.64 2.2,-0.85 5.6,-1.39 9.44,-1.35 3.84,0.04 7.23,0.65 9.4,1.54 0.5,0.17 0.93,0.4 1.299997,0.67 0.77,0.5 1.2,1.06 1.2,1.64 0,0.05 -0.02,0.09 -0.03,0.13 0.02,0.1 0.02,0.2 0.02,0.29 z"
             fill="#2a5caa"
             stroke="#ffffff"
             stroke-width="0.09"
             stroke-miterlimit="10"
             stroke-linecap="round"
             stroke-linejoin="round"
             id="path322-7-5-3-4-95"
             style="fill:#333333" />
          <path
             d="m 100.1601,40.590697 c 0,-0.53 -0.389997,-1.03 -1.079997,-1.48 -0.33,-0.25 -0.72,-0.45 -1.17,-0.6 -1.96,-0.82 -5.03,-1.36 -8.49,-1.4 -3.46,-0.03 -6.54,0.45 -8.52,1.22 -0.44,0.15 -0.84,0.34 -1.18,0.58 -0.7,0.44 -1.1,0.93 -1.11,1.46 l 0.02,0.12 -0.02,0.25 0.47,3.03 c 0.17,-0.16 0.36,-0.32 0.6,-0.46 0.33,-0.24 0.73,-0.44 1.18,-0.59 1.98,-0.76 5.05,-1.25 8.52,-1.21 3.46,0.03 6.52,0.58 8.49,1.39 0.657849,0.216043 1.254457,0.586352 1.74,1.08 l 0.549997,-3.03 -0.02,-0.25 0.02,-0.12 z m -24.389997,24.46 c -0.21315,1.19536 -1.35444,1.99203 -2.55,1.78 l -0.34,-0.06 c -1.2,-0.21 -2,-1.35 -1.78,-2.55 l 1.94,-10.95 c 0.21315,-1.195364 1.35444,-1.992026 2.55,-1.78 l 0.34,0.06 c 1.19075,0.213291 1.98591,1.347948 1.78,2.54 l -1.94,10.95 z m 26.729997,0.27 c 0.18942,1.20191 1.31848,2.02182 2.52,1.83 l 0.34,-0.05 c 1.19737,-0.18957 2.01574,-1.312037 1.83,-2.51 l -1.72,-11 c -0.18957,-1.197362 -1.31203,-2.015734 -2.51,-1.83 l -0.34,0.06 c -1.1969,0.184827 -2.01933,1.302264 -1.84,2.5 z"
             fill="#2a5caa"
             stroke="#ffffff"
             stroke-width="0.09"
             stroke-miterlimit="10"
             stroke-linecap="round"
             stroke-linejoin="round"
             id="path323-0-5-0-1-8"
             style="fill:#1a1a1a" />
        </g>
        <!--        <g data-place-id="27">-->
        <!--            <rect x="270" y="354" width="32" height="32" rx="8" fill="#4BB34B" stroke="#fff" stroke-width="2"/>-->
        <!--            <text font-size="17" fill="#fff" x="277" y="377">27</text>-->
        <!--        </g>-->
        <!--        <g data-place-id="25">-->
        <!--            <rect x="61" y="350" width="34" height="34" rx="9" fill="#4BB34B" stroke="#fff" stroke-width="2"/>-->
        <!--            <text font-size="17" fill="#fff" x="68" y="373">25</text>-->
        <!--        </g>-->
        <!--        <g data-place-id="24">-->
        <!--            <rect x="23" y="403" width="34" height="34" rx="9" fill="#4BB34B" stroke="#fff" stroke-width="2"/>-->
        <!--            <text font-size="17" fill="#fff" x="30" y="426">24</text>-->
        <!--        </g>-->
        <!--        <g data-place-id="23">-->
        <!--            <rect x="102" y="244" width="32" height="32" rx="8" fill="#4BB34B" stroke="#fff" stroke-width="2"/>-->
        <!--            <text font-size="17" fill="#fff" x="108" y="266">23</text>-->
        <!--        </g>-->
        <!--        <g data-place-id="22">-->
        <!--            <rect x="53" y="149" width="32" height="32" rx="8" fill="#4BB34B" stroke="#fff" stroke-width="2"/>-->
        <!--            <text font-size="17" fill="#fff" x="59" y="171">22</text>-->
        <!--        </g>-->
      </g>
      <g
         id="path2-3-3-6-8-6-1"
         style="stroke:#000000;stroke-width:1.01318;stroke-dasharray:none;stroke-opacity:1">
        <path
           style="color:#000000;fill:#ebc793;fill-rule:evenodd;stroke:#000000;stroke-width:1.01318;stroke-dasharray:none;stroke-opacity:1;paint-order:fill markers stroke"
           d="m 332.09379,112.59615 c 0.50557,0 0.91922,0.36769 0.91922,0.87326 v 41.31905 c 0,0.50557 -0.41365,0.87326 -0.91922,0.87326 h -84.15482 c -0.55153,0 -0.96518,-0.36769 -0.96518,-0.87326 v -41.31905 c 0,-0.50557 0.41365,-0.87326 0.96518,-0.87326 z"
           id="path561-6-0-1-9-2" />
        <path
           style="color:#000000;fill:#000000;fill-rule:evenodd;stroke:#000000;stroke-width:1.01318;stroke-dasharray:none;stroke-opacity:1;paint-order:fill markers stroke"
           d="m 247.93945,112.4668 c -0.60896,0 -1.0957,0.4259 -1.0957,1.00195 v 41.32031 c 0,0.57606 0.48674,1.00196 1.0957,1.00196 h 84.1543 c 0.56822,0 1.04883,-0.4259 1.04883,-1.00196 v -41.32031 c 0,-0.57605 -0.48061,-1.00195 -1.04883,-1.00195 z m 0,0.25781 h 84.1543 c 0.44292,0 0.78906,0.30906 0.78906,0.74414 v 41.32031 c 0,0.43509 -0.34614,0.74414 -0.78906,0.74414 h -84.1543 c -0.49409,0 -0.83593,-0.30905 -0.83593,-0.74414 v -41.32031 c 0,-0.43508 0.34184,-0.74414 0.83593,-0.74414 z"
           id="path564-8-7-8-1-0" />
      </g>
    </g>
  </g>
</svg>
