<?xml version="1.0" encoding="UTF-8" standalone="no"?>
<!-- Created with Inkscape (http://www.inkscape.org/) -->

<svg
        width="26.398226mm"
        height="24.10593mm"
        viewBox="0 0 26.398226 24.105931"
        version="1.1"
        id="svg1"
        xmlns="http://www.w3.org/2000/svg">
    <defs
            id="defs1">
        <clipPath
                id="a-7-6-5">
            <path
                    fill="#ffffff"
                    d="M 0,0 H 692 V 486 H 0 Z"
                    id="path424-4-1-9"/>
        </clipPath>
        <clipPath
                id="a-3-9-1-9-2">
            <path
                    fill="#ffffff"
                    d="M 0,0 H 692 V 486 H 0 Z"
                    id="path424-3-7-5-9-27"/>
        </clipPath>
        <clipPath
                id="a-3-9-1-4-9">
            <path
                    fill="#ffffff"
                    d="M 0,0 H 692 V 486 H 0 Z"
                    id="path424-3-7-5-2-6"/>
        </clipPath>
        <clipPath
                clipPathUnits="userSpaceOnUse"
                id="clipEmfPath1-1">
            <path
                    d="M 1.0299213,2.0598425 H 142.12913 V 55.615748 H 1.0299213 Z"
                    id="path1-59"/>
        </clipPath>
        <clipPath
                clipPathUnits="userSpaceOnUse"
                id="clipPath1">
            <path
                    d="M 1.0299213,2.0598425 H 142.12913 V 55.615748 H 1.0299213 Z"
                    id="path1"/>
        </clipPath>
        <clipPath
                clipPathUnits="userSpaceOnUse"
                id="clipPath2">
            <path
                    d="M 1.0299213,2.0598425 H 142.12913 V 55.615748 H 1.0299213 Z"
                    id="path2"/>
        </clipPath>
    </defs>
    <g
            id="layer1"
            transform="translate(-110.02226,-125.00091)">
        <g
                transform="matrix(0.26114195,0,0,0.26114195,48.074541,103.72401)"
                table_id="11"
                id="g922">
            <g
                    transform="translate(-2.6775899,13.171299)"
                    table_id="5"
                    id="g3">
                <g
                        clip-path="url(#a-3-9-1-4-9)"
                        transform="matrix(1.2922237,0,0,1.2922237,175.76963,21.534845)"
                        id="g396-8-1-5-7-7">
                    <g
                            id="g424-2-9-7-2-0"
                            style="fill:#333333">
                        <path
                                d="m 103.2201,57.750697 -28.049997,-0.28 -0.04,3.38 28.059997,0.28 z"
                                fill="#2a5caa"
                                stroke="#ffffff"
                                stroke-width="0.09"
                                stroke-miterlimit="10"
                                stroke-linecap="round"
                                stroke-linejoin="round"
                                id="path320-6-0-5-4-9"
                                style="fill:#808080"/>
                        <path
                                d="m 101.0501,67.550697 -1.299997,-12.93 a 4.6,4.6 0 0 0 -4.57,-4.64 l -11.79,-0.12 a 4.6,4.6 0 0 0 -4.65,4.55 l -1.56,12.9 0.01,0.42 -0.02,0.2 c 0,0.9 0.43,1.73 1.19,2.49 0.37,0.4 0.8,0.74 1.29,1 2.17,1.35 5.56,2.25 9.4,2.29 3.84,0.04 7.24,-0.79 9.44,-2.1 0.5,-0.24 0.94,-0.58 1.32,-0.97 a 3.5,3.5 0 0 0 1.229997,-2.46 l -0.02,-0.2 z"
                                fill="#2a5caa"
                                stroke="#ffffff"
                                stroke-width="0.09"
                                stroke-miterlimit="10"
                                stroke-linecap="round"
                                stroke-linejoin="round"
                                id="path321-9-5-3-3-9"
                                style="fill:#333333"/>
                        <path
                                d="m 99.880103,66.690697 -1.17,-11.66 a 4.15,4.15 0 0 0 -4.11,-4.19 l -10.64,-0.1 a 4.15,4.15 0 0 0 -4.2,4.1 l -1.4,11.63 0.01,0.39 -0.02,0.18 c -0.01,0.8 0.38,1.56 1.07,2.24 a 4.17,4.17 0 0 0 1.16,0.9 c 1.96,1.22 5.02,2.03 8.48,2.06 3.46,0.04 6.54,-0.7 8.52,-1.88 0.44,-0.23 0.84,-0.53 1.18,-0.89 0.7,-0.66 1.1,-1.41 1.12,-2.21 l -0.02,-0.19 z m 1.439997,-26.18 -1.499997,7.2 c -0.02,1.67 -2.1,3.01 -4.64,2.99 l -11.8,-0.12 c -2.54,-0.03 -4.58,-1.4 -4.57,-3.08 l -1.36,-7.24 0.02,-0.28 c 0,-0.04 -0.02,-0.09 -0.01,-0.13 0,-0.59 0.45,-1.13 1.23,-1.62 0.37,-0.26 0.8,-0.48 1.3,-0.64 2.2,-0.85 5.6,-1.39 9.44,-1.35 3.84,0.04 7.23,0.65 9.4,1.54 0.5,0.17 0.93,0.4 1.299997,0.67 0.77,0.5 1.2,1.06 1.2,1.64 0,0.05 -0.02,0.09 -0.03,0.13 0.02,0.1 0.02,0.2 0.02,0.29 z"
                                fill="#2a5caa"
                                stroke="#ffffff"
                                stroke-width="0.09"
                                stroke-miterlimit="10"
                                stroke-linecap="round"
                                stroke-linejoin="round"
                                id="path322-7-5-3-7-9"
                                style="fill:#333333"/>
                        <path
                                d="m 100.1601,40.590697 c 0,-0.53 -0.389997,-1.03 -1.079997,-1.48 -0.33,-0.25 -0.72,-0.45 -1.17,-0.6 -1.96,-0.82 -5.03,-1.36 -8.49,-1.4 -3.46,-0.03 -6.54,0.45 -8.52,1.22 -0.44,0.15 -0.84,0.34 -1.18,0.58 -0.7,0.44 -1.1,0.93 -1.11,1.46 l 0.02,0.12 -0.02,0.25 0.47,3.03 c 0.17,-0.16 0.36,-0.32 0.6,-0.46 0.33,-0.24 0.73,-0.44 1.18,-0.59 1.98,-0.76 5.05,-1.25 8.52,-1.21 3.46,0.03 6.52,0.58 8.49,1.39 0.657849,0.216043 1.254457,0.586352 1.74,1.08 l 0.549997,-3.03 -0.02,-0.25 0.02,-0.12 z m -24.389997,24.46 c -0.21315,1.19536 -1.35444,1.99203 -2.55,1.78 l -0.34,-0.06 c -1.2,-0.21 -2,-1.35 -1.78,-2.55 l 1.94,-10.95 c 0.21315,-1.195364 1.35444,-1.992026 2.55,-1.78 l 0.34,0.06 c 1.19075,0.213291 1.98591,1.347948 1.78,2.54 l -1.94,10.95 z m 26.729997,0.27 c 0.18942,1.20191 1.31848,2.02182 2.52,1.83 l 0.34,-0.05 c 1.19737,-0.18957 2.01574,-1.312037 1.83,-2.51 l -1.72,-11 c -0.18957,-1.197362 -1.31203,-2.015734 -2.51,-1.83 l -0.34,0.06 c -1.1969,0.184827 -2.01933,1.302264 -1.84,2.5 z"
                                fill="#2a5caa"
                                stroke="#ffffff"
                                stroke-width="0.09"
                                stroke-miterlimit="10"
                                stroke-linecap="round"
                                stroke-linejoin="round"
                                id="path323-0-5-0-0-4"
                                style="fill:#1a1a1a"/>
                    </g>
                    <!--        <g data-place-id="27">-->
                    <!--            <rect x="270" y="354" width="32" height="32" rx="8" fill="#4BB34B" stroke="#fff" stroke-width="2"/>-->
                    <!--            <text font-size="17" fill="#fff" x="277" y="377">27</text>-->
                    <!--        </g>-->
                    <!--        <g data-place-id="25">-->
                    <!--            <rect x="61" y="350" width="34" height="34" rx="9" fill="#4BB34B" stroke="#fff" stroke-width="2"/>-->
                    <!--            <text font-size="17" fill="#fff" x="68" y="373">25</text>-->
                    <!--        </g>-->
                    <!--        <g data-place-id="24">-->
                    <!--            <rect x="23" y="403" width="34" height="34" rx="9" fill="#4BB34B" stroke="#fff" stroke-width="2"/>-->
                    <!--            <text font-size="17" fill="#fff" x="30" y="426">24</text>-->
                    <!--        </g>-->
                    <!--        <g data-place-id="23">-->
                    <!--            <rect x="102" y="244" width="32" height="32" rx="8" fill="#4BB34B" stroke="#fff" stroke-width="2"/>-->
                    <!--            <text font-size="17" fill="#fff" x="108" y="266">23</text>-->
                    <!--        </g>-->
                    <!--        <g data-place-id="22">-->
                    <!--            <rect x="53" y="149" width="32" height="32" rx="8" fill="#4BB34B" stroke="#fff" stroke-width="2"/>-->
                    <!--            <text font-size="17" fill="#fff" x="59" y="171">22</text>-->
                    <!--        </g>-->
                </g>
                <g
                        id="path2-3-3-6-8-61-4"
                        style="stroke:#000000;stroke-width:1.01318;stroke-dasharray:none;stroke-opacity:1">
                    <path
                            style="color:#000000;fill:#ebc793;fill-rule:evenodd;stroke:#000000;stroke-width:1.01318;stroke-dasharray:none;stroke-opacity:1;paint-order:fill markers stroke"
                            d="m 332.09379,112.59615 c 0.50557,0 0.91922,0.36769 0.91922,0.87326 v 41.31905 c 0,0.50557 -0.41365,0.87326 -0.91922,0.87326 h -84.15482 c -0.55153,0 -0.96518,-0.36769 -0.96518,-0.87326 v -41.31905 c 0,-0.50557 0.41365,-0.87326 0.96518,-0.87326 z"
                            id="path561-6-0-1-3-1"/>
                    <path
                            style="color:#000000;fill:#000000;fill-rule:evenodd;stroke:#000000;stroke-width:1.01318;stroke-dasharray:none;stroke-opacity:1;paint-order:fill markers stroke"
                            d="m 247.93945,112.4668 c -0.60896,0 -1.0957,0.4259 -1.0957,1.00195 v 41.32031 c 0,0.57606 0.48674,1.00196 1.0957,1.00196 h 84.1543 c 0.56822,0 1.04883,-0.4259 1.04883,-1.00196 v -41.32031 c 0,-0.57605 -0.48061,-1.00195 -1.04883,-1.00195 z m 0,0.25781 h 84.1543 c 0.44292,0 0.78906,0.30906 0.78906,0.74414 v 41.32031 c 0,0.43509 -0.34614,0.74414 -0.78906,0.74414 h -84.1543 c -0.49409,0 -0.83593,-0.30905 -0.83593,-0.74414 v -41.32031 c 0,-0.43508 0.34184,-0.74414 0.83593,-0.74414 z"
                            id="path564-8-7-8-5-8"/>
                </g>
                <g
                        id="layer8">
                    <path
                            style="display:inline;fill:#afafaf;fill-opacity:1;fill-rule:evenodd;stroke:none;stroke-width:0.727781"
                            d="m 253.40791,123.97076 -2.85768,10.63432 c -0.0937,0.32794 0.0937,0.60902 0.37478,0.70271 l 34.33902,9.22891 c 0.28109,0.0468 0.60902,-0.14054 0.70271,-0.42162 l 2.85768,-10.68118 c 0.0468,-0.28108 -0.0937,-0.60901 -0.42162,-0.70271 l -34.29218,-9.18205 c -0.32793,-0.0937 -0.60901,0.0937 -0.70271,0.42162 z m 5.76221,19.20737 h -0.0468 l 0.42163,-1.6865 c 0.23423,-0.7964 1.17118,-1.26488 2.10812,-0.9838 l 11.52442,3.09192 c 0.93695,0.23424 1.49911,1.07749 1.31172,1.87389 l -0.46847,1.6865 z m 0,0 24.73534,6.65231 5.0595,9.04151 -0.89009,1.31172 -47.64364,-12.78929 -0.14055,-1.54596 8.90098,-5.34059 z"
                            id="path2-1"/>
                    <path
                            style="display:inline;fill:none;stroke:#000000;stroke-width:1.02992px;stroke-linecap:butt;stroke-linejoin:miter;stroke-miterlimit:2;stroke-dasharray:none;stroke-opacity:1"
                            clip-path="url(#clipEmfPath1-1)"
                            d="M 20.662795,4.2484252 16.73622,18.860433 c -0.12874,0.450591 0.128741,0.836811 0.514961,0.965551 L 64.434449,32.50689 C 64.820669,32.57126 65.27126,32.31378 65.4,31.927559 l 3.926575,-14.676378 c 0.06437,-0.38622 -0.12874,-0.836811 -0.579331,-0.965551 L 21.628346,3.6690945 c -0.45059,-0.1287402 -0.836811,0.1287401 -0.965551,0.5793307 z m 7.91752,26.3917318 h -0.06437 l 0.579331,-2.317322 c 0.32185,-1.094292 1.609252,-1.737992 2.896653,-1.351772 l 15.83504,4.248425 c 1.287401,0.321851 2.059842,1.480512 1.802362,2.574803 l -0.643701,2.317323 z m 0,0 33.987402,9.140552 6.951968,12.423425 -1.223031,1.802362 L 2.8322835,36.433465 2.6391732,34.309252 14.869488,26.971063 Z"
                            id="path3-6"
                            transform="matrix(0.72777969,0,0,0.72777969,238.36995,120.87884)"/>
                    <path
                            style="display:inline;fill:#282828;fill-opacity:1;fill-rule:evenodd;stroke:none;stroke-width:0.727781"
                            d="m 255.60973,127.10953 -1.73334,-0.46847 0.46847,-1.82705 1.78019,0.46848 -0.51532,1.82704 2.10813,0.56216 -1.73335,-0.46847 0.46847,-1.82704 1.78019,0.46847 -0.51531,1.82704 z m 4.21625,1.12433 -1.73334,-0.46847 0.46847,-1.82705 1.78019,0.46848 -0.51532,1.82704 3.04507,0.7964 -1.78019,-0.46847 0.51531,-1.82704 1.73335,0.51532 -0.46847,1.78019 z m 5.1532,1.35857 -1.7802,-0.46847 0.51532,-1.7802 1.73335,0.46848 -0.46847,1.78019 2.10812,0.56217 -1.7802,-0.46848 0.51533,-1.78019 1.73335,0.46847 -0.46848,1.7802 z m 5.20004,1.40542 -1.73334,-0.46848 0.46847,-1.82703 1.78019,0.46847 -0.51532,1.82704 2.10813,0.56217 -1.73335,-0.46848 0.46847,-1.82704 1.78019,0.51532 -0.51531,1.7802 z m 12.6956,3.373 -10.21269,-2.71714 0.46847,-1.7802 10.21269,2.71714 -0.46847,1.7802 2.10813,0.60901 -1.7802,-0.51532 0.51532,-1.78019 1.73335,0.46847 -0.46847,1.82704 z m 4.21625,1.17118 -1.78019,-0.46848 0.51532,-1.82703 1.73335,0.46847 -0.46848,1.82704 -22.7209,-3.79463 -1.73335,-0.46847 0.46847,-1.78019 1.78019,0.46847 -0.51531,1.78019 z m -15.36589,-1.82704 -3.88832,-1.03064 0.51532,-1.7802 3.84147,1.03064 -0.46847,1.7802 2.10813,0.56216 -1.73335,-0.46847 0.46847,-1.78019 1.73335,0.46847 -0.46847,1.78019 z m -12.46136,-3.32615 -1.7802,-0.46848 0.51532,-1.78019 1.73335,0.46847 -0.46847,1.7802 -4.21626,-1.12434 -1.78019,-0.46847 0.51532,-1.82704 1.73335,0.46847 -0.46848,1.82704 z m -2.10813,-0.56217 -1.7802,-0.46848 0.51532,-1.82704 1.73335,0.51532 -0.46847,1.7802 18.78574,5.0595 -1.73335,-0.46847 0.46848,-1.82705 1.73335,0.46847 -0.46848,1.82705 z m 20.89387,5.62166 -1.73335,-0.46847 0.46847,-1.82704 1.73335,0.46847 -0.46847,1.82704 2.10813,0.56217 -1.73335,-0.46847 0.46847,-1.82704 1.78019,0.46847 -0.51531,1.82704 z m 4.21625,1.12434 -1.73335,-0.46847 0.46848,-1.82705 1.78019,0.46847 -0.51532,1.82705 4.21625,1.12433 -3.84147,-1.03064 0.46847,-1.82704 3.88832,1.03064 -0.51532,1.82704 z m -13.25777,-1.21803 -1.73334,-0.46847 0.46846,-1.82705 1.7802,0.46848 -0.51532,1.82704 2.15497,0.56216 -1.78019,-0.46847 0.46847,-1.82704 1.78019,0.46848 -0.46847,1.82703 z m 4.2631,1.12433 -1.7802,-0.46847 0.46847,-1.82704 1.7802,0.46847 -0.46847,1.82704 2.10812,0.56217 -1.78019,-0.46847 0.51532,-1.82705 1.73335,0.46848 -0.46848,1.82704 z m 4.21625,1.12433 -1.7802,-0.46847 0.51532,-1.82704 1.73335,0.46848 -0.46847,1.82703 2.10812,0.56217 -1.78019,-0.46847 0.51532,-1.82704 1.73335,0.51532 -0.46848,1.78019 z m 4.21625,1.12434 -1.7802,-0.46847 0.51533,-1.7802 1.73335,0.46848 -0.46848,1.78019 2.10813,0.56217 -1.7802,-0.46848 0.51532,-1.78019 1.73335,0.46847 -0.46847,1.7802 z m 4.21625,1.12434 -1.78019,-0.46848 0.51532,-1.7802 1.73335,0.46848 -0.46848,1.7802 -31.48134,-8.43251 -1.73335,-0.46847 0.46847,-1.78019 1.7802,0.46847 -0.51532,1.78019 z m -29.37322,-7.87034 -1.73334,-0.46847 0.46847,-1.7802 1.78019,0.46847 -0.51532,1.7802 2.10813,0.60901 -1.73335,-0.51531 0.46847,-1.7802 1.7802,0.46847 -0.51532,1.82704 z m 11.71181,6.18383 -1.73335,-0.46847 0.46848,-1.7802 1.78019,0.46848 -0.51532,1.78019 2.10813,0.56217 -1.73335,-0.46847 0.46847,-1.7802 1.7802,0.46848 -0.51532,1.78019 z m 4.21625,1.12434 -1.73335,-0.46848 0.46848,-1.78019 1.7802,0.46847 -0.51533,1.7802 2.10813,0.56217 -1.73335,-0.46848 0.46848,-1.7802 1.78019,0.46848 -0.51532,1.7802 z m 4.21626,1.12433 -1.73335,-0.46847 0.46847,-1.7802 1.7802,0.46848 -0.51532,1.78019 2.15497,0.60901 -1.7802,-0.51532 0.46848,-1.78019 1.7802,0.46847 -0.46848,1.82704 z m 4.2631,1.17119 -1.7802,-0.46848 0.46847,-1.82704 1.7802,0.46847 -0.46847,1.82705 2.10812,0.56216 -1.78019,-0.46847 0.51532,-1.82704 1.73335,0.46847 -0.46848,1.82704 z m 4.21625,1.12433 -1.7802,-0.46848 0.51532,-1.82704 1.73335,0.46847 -0.46847,1.82705 -20.00377,-5.38744 -1.7802,-0.46847 0.51532,-1.7802 1.73335,0.46848 -0.46847,1.78019 z m -31.48135,-8.43251 -1.73335,-0.46847 0.46848,-1.82704 1.78019,0.46847 -0.51532,1.82704 2.10813,0.56217 -1.73335,-0.46847 0.46847,-1.82705 1.7802,0.46847 -0.51532,1.82705 z m 4.21625,1.12434 -1.73335,-0.46847 0.46848,-1.82705 1.7802,0.46847 -0.51533,1.82705 3.04508,0.7964 -1.7802,-0.46847 0.51532,-1.7802 1.73335,0.46848 -0.46847,1.78019 z m 5.1532,1.35856 -1.78019,-0.46847 0.51532,-1.78019 1.73335,0.46847 z"
                            id="path4"/>
                    <path
                            style="display:inline;fill:#262626;fill-opacity:1;fill-rule:evenodd;stroke:none;stroke-width:0.727781"
                            d="m 264.93233,151.2827 -21.54973,-5.76221 6.18384,-4.12256 16.77131,4.49734 16.81816,4.54418 3.27931,6.60546 z"
                            id="path5-5"/>
                    <path
                            style="display:inline;fill:none;stroke:#000000;stroke-width:0.374778px;stroke-linecap:butt;stroke-linejoin:miter;stroke-miterlimit:2;stroke-dasharray:none;stroke-opacity:1"
                            d="m 264.93233,151.2827 -21.54973,-5.76221 6.18384,-4.12256 16.77131,4.49734 16.81816,4.54418 3.27931,6.60546 z m -24.64165,-5.43428 48.67428,13.07038 z"
                            id="path6-3"/>
                    <path
                            style="display:inline;fill:#afafaf;fill-opacity:1;fill-rule:evenodd;stroke:none;stroke-width:0.727781"
                            d="m 303.67499,146.03581 16.34969,-4.40364 -0.51532,-1.78019 c -0.18738,-0.8901 -1.21803,-1.35858 -2.24867,-1.07749 l -12.6956,3.41984 c -1.03063,0.28109 -1.6865,1.17119 -1.45226,2.01444 l 0.51531,1.82704 z m 0,0 -10.96225,2.90453 -5.62167,9.74423 0.9838,1.35856 52.3752,-14.00732 0.14055,-1.6865 -9.69737,-5.62167 z"
                            id="path7-2"/>
                    <path
                            style="display:inline;fill:none;stroke:#000000;stroke-width:1.02992px;stroke-linecap:butt;stroke-linejoin:miter;stroke-miterlimit:2;stroke-dasharray:none;stroke-opacity:1"
                            clip-path="url(#clipEmfPath1-1)"
                            d="m 89.73189,34.566732 22.46516,-6.050787 -0.70807,-2.446063 C 111.2315,24.84685 109.81535,24.20315 108.39921,24.58937 l -17.444289,4.699016 c -1.416141,0.38622 -2.317323,1.609252 -1.995472,2.767913 l 0.708071,2.510433 z m 0,0 -15.062599,3.990945 -7.724409,13.388977 1.351772,1.866732 71.965746,-19.246654 0.19311,-2.317323 -13.3246,-7.724409 z"
                            id="path8-8"
                            transform="matrix(0.72777969,0,0,0.72777969,238.36995,120.87884)"/>
                    <path
                            style="display:inline;fill:#262626;fill-opacity:1;fill-rule:evenodd;stroke:none;stroke-width:0.727781"
                            d="m 313.55976,150.39261 -23.7047,6.32437 3.70093,-7.12078 18.45781,-4.96581 18.45781,-4.96581 6.74601,4.3568 z"
                            id="path9-9"/>
                    <path
                            style="display:inline;fill:none;stroke:#000000;stroke-width:0.514961px;stroke-linecap:butt;stroke-linejoin:miter;stroke-miterlimit:2;stroke-dasharray:none;stroke-opacity:1"
                            clip-path="url(#clipEmfPath1-1)"
                            d="m 103.31398,40.55315 -32.571263,8.68996 5.085236,-9.784252 25.361807,-6.823228 25.36181,-6.823228 9.2693,5.986417 z M 66.944882,51.946654 140.45551,32.249409 Z"
                            id="path10-2"
                            transform="matrix(0.72777969,0,0,0.72777969,238.36995,120.87884)"/>
                </g>
            </g>
        </g>
    </g>
</svg>
