<?xml version="1.0" encoding="UTF-8" standalone="no"?>
<!-- Created with Inkscape (http://www.inkscape.org/) -->

<svg
   width="22.733034mm"
   height="22.944773mm"
   viewBox="0 0 22.733034 22.944773"
   version="1.1"
   id="svg1"
   xmlns="http://www.w3.org/2000/svg"
   xmlns:svg="http://www.w3.org/2000/svg">
  <defs
     id="defs1">
    <clipPath
       id="a-7-6-5">
      <path
         fill="#ffffff"
         d="M 0,0 H 692 V 486 H 0 Z"
         id="path424-4-1-9" />
    </clipPath>
    <clipPath
       id="a-3-9-1-9-2">
      <path
         fill="#ffffff"
         d="M 0,0 H 692 V 486 H 0 Z"
         id="path424-3-7-5-9-27" />
    </clipPath>
    <clipPath
       id="a-3-9-1-4-9">
      <path
         fill="#ffffff"
         d="M 0,0 H 692 V 486 H 0 Z"
         id="path424-3-7-5-2-6" />
    </clipPath>
    <clipPath
       clipPathUnits="userSpaceOnUse"
       id="clipEmfPath1-1">
      <path
         d="M 1.0299213,2.0598425 H 142.12913 V 55.615748 H 1.0299213 Z"
         id="path1-59" />
    </clipPath>
    <clipPath
       clipPathUnits="userSpaceOnUse"
       id="clipPath1">
      <path
         d="M 1.0299213,2.0598425 H 142.12913 V 55.615748 H 1.0299213 Z"
         id="path1" />
    </clipPath>
    <clipPath
       clipPathUnits="userSpaceOnUse"
       id="clipPath2">
      <path
         d="M 1.0299213,2.0598425 H 142.12913 V 55.615748 H 1.0299213 Z"
         id="path2" />
    </clipPath>
    <clipPath
       id="a">
      <path
         fill="#ffffff"
         d="M 0,0 H 692 V 486 H 0 Z"
         id="path424" />
    </clipPath>
    <clipPath
       clipPathUnits="userSpaceOnUse"
       id="clipEmfPath1-59">
      <path
         d="M 0,0 H 82.393701 V 45.316535 H 0 Z"
         id="path1-05" />
    </clipPath>
    <clipPath
       clipPathUnits="userSpaceOnUse"
       id="clipPath1-9">
      <path
         d="M 0,0 H 82.393701 V 45.316535 H 0 Z"
         id="path1-7" />
    </clipPath>
  </defs>
  <g
     transform="matrix(0.26114195,0,0,0.26114195,-64.362925,-17.837325)"
     table_id="3"
     id="g916">
    <g
       clip-path="url(#a)"
       transform="matrix(1.2922237,0,0,1.2922237,175.76963,21.534845)"
       id="g396">
      <g
         id="g424"
         style="fill:#333333">
        <path
           d="m 103.2201,57.750697 -28.049997,-0.28 -0.04,3.38 28.059997,0.28 z"
           fill="#2a5caa"
           stroke="#ffffff"
           stroke-width="0.09"
           stroke-miterlimit="10"
           stroke-linecap="round"
           stroke-linejoin="round"
           id="path320"
           style="fill:#808080" />
        <path
           d="m 101.0501,67.550697 -1.299997,-12.93 a 4.6,4.6 0 0 0 -4.57,-4.64 l -11.79,-0.12 a 4.6,4.6 0 0 0 -4.65,4.55 l -1.56,12.9 0.01,0.42 -0.02,0.2 c 0,0.9 0.43,1.73 1.19,2.49 0.37,0.4 0.8,0.74 1.29,1 2.17,1.35 5.56,2.25 9.4,2.29 3.84,0.04 7.24,-0.79 9.44,-2.1 0.5,-0.24 0.94,-0.58 1.32,-0.97 a 3.5,3.5 0 0 0 1.229997,-2.46 l -0.02,-0.2 z"
           fill="#2a5caa"
           stroke="#ffffff"
           stroke-width="0.09"
           stroke-miterlimit="10"
           stroke-linecap="round"
           stroke-linejoin="round"
           id="path321"
           style="fill:#333333" />
        <path
           d="m 99.880103,66.690697 -1.17,-11.66 a 4.15,4.15 0 0 0 -4.11,-4.19 l -10.64,-0.1 a 4.15,4.15 0 0 0 -4.2,4.1 l -1.4,11.63 0.01,0.39 -0.02,0.18 c -0.01,0.8 0.38,1.56 1.07,2.24 a 4.17,4.17 0 0 0 1.16,0.9 c 1.96,1.22 5.02,2.03 8.48,2.06 3.46,0.04 6.54,-0.7 8.52,-1.88 0.44,-0.23 0.84,-0.53 1.18,-0.89 0.7,-0.66 1.1,-1.41 1.12,-2.21 l -0.02,-0.19 z m 1.439997,-26.18 -1.499997,7.2 c -0.02,1.67 -2.1,3.01 -4.64,2.99 l -11.8,-0.12 c -2.54,-0.03 -4.58,-1.4 -4.57,-3.08 l -1.36,-7.24 0.02,-0.28 c 0,-0.04 -0.02,-0.09 -0.01,-0.13 0,-0.59 0.45,-1.13 1.23,-1.62 0.37,-0.26 0.8,-0.48 1.3,-0.64 2.2,-0.85 5.6,-1.39 9.44,-1.35 3.84,0.04 7.23,0.65 9.4,1.54 0.5,0.17 0.93,0.4 1.299997,0.67 0.77,0.5 1.2,1.06 1.2,1.64 0,0.05 -0.02,0.09 -0.03,0.13 0.02,0.1 0.02,0.2 0.02,0.29 z"
           fill="#2a5caa"
           stroke="#ffffff"
           stroke-width="0.09"
           stroke-miterlimit="10"
           stroke-linecap="round"
           stroke-linejoin="round"
           id="path322"
           style="fill:#333333" />
        <path
           d="m 100.1601,40.590697 c 0,-0.53 -0.389997,-1.03 -1.079997,-1.48 -0.33,-0.25 -0.72,-0.45 -1.17,-0.6 -1.96,-0.82 -5.03,-1.36 -8.49,-1.4 -3.46,-0.03 -6.54,0.45 -8.52,1.22 -0.44,0.15 -0.84,0.34 -1.18,0.58 -0.7,0.44 -1.1,0.93 -1.11,1.46 l 0.02,0.12 -0.02,0.25 0.47,3.03 c 0.17,-0.16 0.36,-0.32 0.6,-0.46 0.33,-0.24 0.73,-0.44 1.18,-0.59 1.98,-0.76 5.05,-1.25 8.52,-1.21 3.46,0.03 6.52,0.58 8.49,1.39 0.657849,0.216043 1.254457,0.586352 1.74,1.08 l 0.549997,-3.03 -0.02,-0.25 0.02,-0.12 z m -24.389997,24.46 c -0.21315,1.19536 -1.35444,1.99203 -2.55,1.78 l -0.34,-0.06 c -1.2,-0.21 -2,-1.35 -1.78,-2.55 l 1.94,-10.95 c 0.21315,-1.195364 1.35444,-1.992026 2.55,-1.78 l 0.34,0.06 c 1.19075,0.213291 1.98591,1.347948 1.78,2.54 l -1.94,10.95 z m 26.729997,0.27 c 0.18942,1.20191 1.31848,2.02182 2.52,1.83 l 0.34,-0.05 c 1.19737,-0.18957 2.01574,-1.312037 1.83,-2.51 l -1.72,-11 c -0.18957,-1.197362 -1.31203,-2.015734 -2.51,-1.83 l -0.34,0.06 c -1.1969,0.184827 -2.01933,1.302264 -1.84,2.5 z"
           fill="#2a5caa"
           stroke="#ffffff"
           stroke-width="0.09"
           stroke-miterlimit="10"
           stroke-linecap="round"
           stroke-linejoin="round"
           id="path323"
           style="fill:#1a1a1a" />
      </g>
      <!--        <g data-place-id="27">-->
      <!--            <rect x="270" y="354" width="32" height="32" rx="8" fill="#4BB34B" stroke="#fff" stroke-width="2"/>-->
      <!--            <text font-size="17" fill="#fff" x="277" y="377">27</text>-->
      <!--        </g>-->
      <!--        <g data-place-id="25">-->
      <!--            <rect x="61" y="350" width="34" height="34" rx="9" fill="#4BB34B" stroke="#fff" stroke-width="2"/>-->
      <!--            <text font-size="17" fill="#fff" x="68" y="373">25</text>-->
      <!--        </g>-->
      <!--        <g data-place-id="24">-->
      <!--            <rect x="23" y="403" width="34" height="34" rx="9" fill="#4BB34B" stroke="#fff" stroke-width="2"/>-->
      <!--            <text font-size="17" fill="#fff" x="30" y="426">24</text>-->
      <!--        </g>-->
      <!--        <g data-place-id="23">-->
      <!--            <rect x="102" y="244" width="32" height="32" rx="8" fill="#4BB34B" stroke="#fff" stroke-width="2"/>-->
      <!--            <text font-size="17" fill="#fff" x="108" y="266">23</text>-->
      <!--        </g>-->
      <!--        <g data-place-id="22">-->
      <!--            <rect x="53" y="149" width="32" height="32" rx="8" fill="#4BB34B" stroke="#fff" stroke-width="2"/>-->
      <!--            <text font-size="17" fill="#fff" x="59" y="171">22</text>-->
      <!--        </g>-->
    </g>
    <g
       id="path2-3"
       style="stroke:#000000;stroke-width:1.01318;stroke-dasharray:none;stroke-opacity:1">
      <path
         style="color:#000000;fill:#ebc793;fill-rule:evenodd;stroke:#000000;stroke-width:1.01318;stroke-dasharray:none;stroke-opacity:1;paint-order:fill markers stroke"
         d="m 332.09379,112.59615 c 0.50557,0 0.91922,0.36769 0.91922,0.87326 v 41.31905 c 0,0.50557 -0.41365,0.87326 -0.91922,0.87326 h -84.15482 c -0.55153,0 -0.96518,-0.36769 -0.96518,-0.87326 v -41.31905 c 0,-0.50557 0.41365,-0.87326 0.96518,-0.87326 z"
         id="path561" />
    </g>
    <g
       id="layer3"
       transform="matrix(1.2922237,0,0,1.2922237,-70.467134,-31.482177)">
      <path
         style="fill:#afafaf;fill-opacity:1;fill-rule:evenodd;stroke:none;stroke-width:0.451508"
         d="m 267.30816,124.80734 v 7.78904 c 0,0.20344 0.17439,0.37783 0.4069,0.37783 h 24.99468 c 0.20344,0 0.37782,-0.17439 0.37782,-0.37783 v -7.78904 c 0,-0.20345 -0.17438,-0.40689 -0.37782,-0.40689 h -24.99468 c -0.23251,0 -0.4069,0.20344 -0.4069,0.40689 z m 7.41122,12.03233 h -0.0291 v -1.22068 c 0,-0.58127 0.55221,-1.07535 1.22067,-1.07535 h 8.39938 c 0.66846,0 1.24974,0.49408 1.24974,1.07535 v 1.22068 z m 0,0 h 18.01942 l 5.08613,5.23144 -0.37783,1.04629 h -34.67285 l -0.37783,-1.04629 5.05707,-5.23144 z"
         id="path2-2" />
      <path
         style="fill:none;stroke:#000000;stroke-width:1.02992px;stroke-linecap:butt;stroke-linejoin:miter;stroke-miterlimit:2;stroke-dasharray:none;stroke-opacity:1"
         clip-path="url(#clipEmfPath1-59)"
         d="m 12.552165,2.446063 v 17.251181 c 0,0.450591 0.386221,0.836811 0.901181,0.836811 h 55.358268 c 0.450591,0 0.836811,-0.38622 0.836811,-0.836811 V 2.446063 c 0,-0.4505906 -0.38622,-0.9011811 -0.836811,-0.9011811 H 13.453346 c -0.51496,0 -0.901181,0.4505905 -0.901181,0.9011811 z m 16.41437,26.649213 h -0.06437 v -2.703544 c 0,-1.287401 1.223032,-2.381693 2.703544,-2.381693 h 18.602952 c 1.480512,0 2.767914,1.094292 2.767914,2.381693 v 2.703544 z m 0,0 H 68.875984 L 80.140748,40.68189 79.303937,42.999213 H 2.5104331 L 1.673622,40.68189 12.874016,29.095276 Z"
         id="path3-2"
         transform="matrix(0.45150766,0,0,0.45150766,261.64077,123.70292)" />
      <path
         style="fill:#282828;fill-opacity:1;fill-rule:evenodd;stroke:none;stroke-width:0.451508"
         d="m 269.40074,126.55116 h -1.27879 v -1.30787 h 1.27879 v 1.30787 h 1.54038 -1.2788 v -1.30787 h 1.2788 v 1.30787 z m 3.05168,0 h -1.2788 v -1.30787 h 1.2788 v 1.30787 h 2.20883 -1.2788 v -1.30787 h 1.2788 v 1.30787 z m 3.7492,0 h -1.27879 v -1.30787 h 1.27879 v 1.30787 h 1.54037 -1.2788 v -1.30787 h 1.2788 v 1.30787 z m 3.80733,0 h -1.27879 v -1.30787 h 1.27879 v 1.30787 h 1.54037 -1.2788 v -1.30787 h 1.2788 v 1.30787 z m 9.21316,0 h -7.44028 v -1.30787 h 7.44028 v 1.30787 h 1.54037 -1.2788 v -1.30787 h 1.2788 v 1.30787 z m 3.08074,0 h -1.2788 v -1.30787 h 1.2788 v 1.30787 l -16.10123,1.56943 h -1.27879 v -1.30786 h 1.27879 v 1.30786 z m -10.75353,1.56943 h -2.81916 v -1.30786 h 2.81916 v 1.30786 h 1.51131 -1.2788 v -1.30786 h 1.2788 v 1.30786 z m -9.0969,0 h -1.2788 v -1.30786 h 1.2788 v 1.30786 h -3.05168 -1.27879 v -1.30786 h 1.27879 v 1.30786 z m -1.5113,0 h -1.2788 v -1.30786 h 1.2788 v 1.30786 h 13.65988 -1.2788 v -1.30786 h 1.2788 v 1.30786 z m 15.20025,0 h -1.2788 v -1.30786 h 1.2788 v 1.30786 h 1.54037 -1.2788 v -1.30786 h 1.2788 v 1.30786 z m 3.08074,0 h -1.2788 v -1.30786 h 1.2788 v 1.30786 h 3.08074 -2.81917 v -1.30786 h 2.81917 v 1.30786 z m -9.21316,1.5985 h -1.27879 v -1.33693 h 1.27879 v 1.33693 h 1.54037 -1.2788 v -1.33693 h 1.2788 v 1.33693 z m 3.05168,0 h -1.2788 v -1.33693 h 1.2788 v 1.33693 h 1.54037 -1.2788 v -1.33693 h 1.2788 v 1.33693 z m 3.08074,0 h -1.2788 v -1.33693 h 1.2788 v 1.33693 h 1.54037 -1.2788 v -1.33693 h 1.2788 v 1.33693 z m 3.08074,0 h -1.2788 v -1.33693 h 1.2788 v 1.33693 h 1.54037 -1.2788 v -1.33693 h 1.2788 v 1.33693 z m 3.08074,0 h -1.2788 v -1.33693 h 1.2788 v 1.33693 h -22.90211 -1.27879 v -1.33693 h 1.27879 v 1.33693 z m -21.36173,0 h -1.2788 v -1.33693 h 1.2788 v 1.33693 h 1.5113 -1.2788 v -1.33693 h 1.2788 v 1.33693 z m 9.06783,2.06351 h -1.27879 v -1.33692 h 1.27879 v 1.33692 h 1.54037 -1.2788 v -1.33692 h 1.2788 v 1.33692 z m 3.05168,0 h -1.2788 v -1.33692 h 1.2788 v 1.33692 h 1.54037 -1.2788 v -1.33692 h 1.2788 v 1.33692 z m 3.08074,0 h -1.2788 v -1.33692 h 1.2788 v 1.33692 h 1.54037 -1.2788 v -1.33692 h 1.2788 v 1.33692 z m 3.08074,0 h -1.2788 v -1.33692 h 1.2788 v 1.33692 h 1.54037 -1.2788 v -1.33692 h 1.2788 v 1.33692 z m 3.08074,0 h -1.2788 v -1.33692 h 1.2788 v 1.33692 h -14.56086 -1.2788 v -1.33692 h 1.2788 v 1.33692 z m -22.90211,0 h -1.27879 v -1.33692 h 1.27879 v 1.33692 h 1.54038 -1.2788 v -1.33692 h 1.2788 v 1.33692 z m 3.05168,0 h -1.2788 v -1.33692 h 1.2788 v 1.33692 h 2.20883 -1.2788 v -1.33692 h 1.2788 v 1.33692 z m 3.7492,0 h -1.27879 v -1.33692 h 1.27879 z"
         id="path4-9" />
      <path
         style="fill:#262626;fill-opacity:1;fill-rule:evenodd;stroke:none;stroke-width:0.451508"
         d="m 280.09614,141.28639 h -15.66527 l 3.45857,-3.89452 h 12.2067 12.23577 l 3.45857,3.89452 z"
         id="path5-8" />
      <path
         style="fill:none;stroke:#000000;stroke-width:0.514961px;stroke-linecap:butt;stroke-linejoin:miter;stroke-miterlimit:2;stroke-dasharray:none;stroke-opacity:1"
         clip-path="url(#clipEmfPath1-59)"
         d="M 40.875,38.943898 H 6.1795276 L 13.839567,30.318307 H 40.875 67.974803 l 7.66004,8.625591 z M 1.673622,40.74626 h 78.467126 z"
         id="path6-9"
         transform="matrix(0.45150766,0,0,0.45150766,261.64077,123.70292)" />
    </g>
  </g>
</svg>
